
<svg width="1440" height="320" viewBox="0 0 1440 320" xmlns="http://www.w3.org/2000/svg">
  <path fill="#3B82F6" fill-opacity="0.1" d="M0,192L48,176C96,160,192,128,288,133.3C384,139,480,181,576,186.7C672,192,768,160,864,154.7C960,149,1056,171,1152,165.3C1248,160,1344,128,1392,112L1440,96L1440,320L1392,320C1344,320,1248,320,1152,320C1056,320,960,320,864,320C768,320,672,320,576,320C480,320,384,320,288,320C192,320,96,320,48,320L0,320Z"></path>
  <path fill="#3B82F6" fill-opacity="0.05" d="M0,288L48,266.7C96,245,192,203,288,181.3C384,160,480,160,576,186.7C672,213,768,267,864,266.7C960,267,1056,213,1152,197.3C1248,181,1344,203,1392,213.3L1440,224L1440,320L1392,320C1344,320,1248,320,1152,320C1056,320,960,320,864,320C768,320,672,320,576,320C480,320,384,320,288,320C192,320,96,320,48,320L0,320Z"></path>
</svg>
